<svg width="19" height="18" viewBox="0 0 19 18" fill="none" xmlns="http://www.w3.org/2000/svg">
<g clip-path="url(#clip0_676_929)">
<path d="M17.8197 7.43523L10.4776 7.43488C10.1534 7.43488 9.89062 7.69763 9.89062 8.02184V10.3673C9.89062 10.6914 10.1534 10.9543 10.4776 10.9543H14.6122C14.1594 12.1292 13.3144 13.1132 12.2363 13.7384L13.9993 16.7903C16.8273 15.1547 18.4993 12.285 18.4993 9.07245C18.4993 8.61504 18.4656 8.28805 18.3982 7.91986C18.3469 7.64012 18.104 7.43523 17.8197 7.43523Z" fill="#167EE6"/>
<path d="M9.50118 14.4784C7.47779 14.4784 5.7114 13.3729 4.76271 11.7369L1.71094 13.4959C3.26396 16.1876 6.17329 18.0001 9.50118 18.0001C11.1337 18.0001 12.6742 17.5606 14.0012 16.7946V16.7904L12.2382 13.7385C11.4318 14.2062 10.4986 14.4784 9.50118 14.4784Z" fill="#12B347"/>
<path d="M14 16.7945V16.7903L12.237 13.7384C11.4306 14.2061 10.4975 14.4783 9.5 14.4783V18.0001C11.1326 18.0001 12.6731 17.5605 14 16.7945Z" fill="#0F993E"/>
<path d="M4.02174 9C4.02174 8.00265 4.29392 7.06957 4.76154 6.26319L1.70976 4.50418C0.939523 5.82701 0.5 7.36326 0.5 9C0.5 10.6367 0.939523 12.173 1.70976 13.4958L4.76154 11.7368C4.29392 10.9304 4.02174 9.99734 4.02174 9Z" fill="#FFD500"/>
<path d="M9.50118 3.52174C10.8206 3.52174 12.0326 3.99059 12.9793 4.77046C13.2128 4.96283 13.5522 4.94895 13.7662 4.73502L15.428 3.07318C15.6707 2.83046 15.6534 2.43316 15.3941 2.20823C13.8081 0.832254 11.7444 0 9.50118 0C6.17328 0 3.26396 1.81255 1.71094 4.50418L4.76271 6.26319C5.7114 4.62727 7.47779 3.52174 9.50118 3.52174Z" fill="#FF4B26"/>
<path d="M12.9781 4.77046C13.2116 4.96283 13.5511 4.94895 13.765 4.73502L15.4268 3.07318C15.6695 2.83046 15.6522 2.43316 15.393 2.20823C13.8069 0.832219 11.7432 0 9.5 0V3.52174C10.8194 3.52174 12.0314 3.99059 12.9781 4.77046Z" fill="#D93F21"/>
</g>
<defs>
<clipPath id="clip0_676_929">
<rect width="18" height="18" fill="white" transform="translate(0.5)"/>
</clipPath>
</defs>
</svg>
